<svg xmlns="http://www.w3.org/2000/svg" viewBox="0 0 718.18 159.81"><defs><style>.cls-1{fill:#ee7594;}.cls-2{fill:#7a7d8a;}.cls-3{fill:#135d99;}.cls-4{fill:#155b98;}.cls-5{fill:#ee7596;}.cls-6{fill:#7a7d89;}</style></defs><g id="Layer_2" data-name="Layer 2"><g id="Camada_1" data-name="Camada 1"><path class="cls-1" d="M551.17,51.66l-6.44,8.48c-9.52-11-18.31-21.75-34-29.25C528.78,33.05,539.9,42.44,551.17,51.66Z"/><path class="cls-2" d="M537.76,82.53l.27-.11Z"/><path class="cls-1" d="M668.78,43.45c-4.86,4.77-9.44,9.94-13.8,15-6.38,7.39-12.65,15-20.49,20.93C619.37,90.76,600.2,90.86,583,84.84c-9.3-3.25-16.38-9.21-23.33-16a49.51,49.51,0,0,0,55.13,29.52c9.66-1.83,18.24-6.74,26-12.65a98,98,0,0,0,14.46-13.75c8.27-9.54,15.54-19.91,24.31-29,4.71-4.89,10-9.89,16-13-7.44-.78-14.69,2.93-20.4,7.75C673,39.46,670.86,41.42,668.78,43.45Z"/><path class="cls-3" d="M642,39.12l-.46-.34c-7.87-6.06-15.4-11.11-25.39-13.26a51.41,51.41,0,0,0-14.43-1c-13.85,1-26.43,8.2-36.65,17.13C554.48,50.9,548.84,63.43,539.75,74a105,105,0,0,1-14.83,14.64A27.12,27.12,0,0,1,517,92.71c1.9.49,5.52-.13,7.36-.73a39.12,39.12,0,0,0,9.8-4.38c11.16-7.54,19.59-17,28.8-26.71,9.57-10.08,20.34-20.83,34.47-24a37.35,37.35,0,0,1,5.58-.81,39.69,39.69,0,0,1,7.94.2,48.81,48.81,0,0,1,17.46,5.82c8.54,4.67,14.34,9.87,21.12,17.3.69-.63,6.51-6.81,6.51-6.81S644.94,41.31,642,39.12Z"/><path class="cls-3" d="M660.16,72.53c2.44-3.21,3.83-4,6.51-7,9.51,11,14.74,22.76,32.07,25.39C680.75,92.79,671.44,81.76,660.16,72.53Z"/><rect class="cls-3" x="675.39" y="65.86" width="2.91" height="18.3" rx="0.46"/><rect class="cls-3" x="684.32" y="43.05" width="2.91" height="45.63" rx="0.46"/><rect class="cls-1" x="524.92" y="37.77" width="2.91" height="44.76" rx="0.46"/><rect class="cls-1" x="533.61" y="43.05" width="2.91" height="20.52" rx="0.46"/><rect class="cls-1" x="579.27" y="62.7" width="14.37" height="27.38"/><rect class="cls-1" x="597.1" y="54.54" width="14.37" height="35.54"/><rect class="cls-1" x="614.71" y="45.6" width="14.37" height="45.5"/><path class="cls-4" d="M425.72,37.25l2.84-2.84,3.66,3.66V24.6H418.75l3.66,3.66-2.92,2.91A33.1,33.1,0,0,0,374.3,78.94a37.82,37.82,0,0,1,15.05-8.33l-.14-.11q-.37-.3-.72-.63a17,17,0,0,1-1.65-1.74c-.2-.24-.39-.5-.58-.76a17,17,0,0,1-1.27-2q-.23-.43-.42-.87c-.07-.15-.13-.3-.19-.45A16.51,16.51,0,0,1,386,48.44l.46-.65q.36-.48.75-.93l.54-.59.56-.56.59-.54c.3-.26.61-.51.93-.74a15.39,15.39,0,0,1,1.66-1.1,16.14,16.14,0,0,1,3.32-1.45c.39-.12.78-.23,1.18-.32a16.56,16.56,0,0,1,3.74-.43,16.92,16.92,0,0,1,3.29.33c.35.07.7.15,1,.25a17,17,0,0,1,2,.69,16.55,16.55,0,0,1,1.89.93,15.52,15.52,0,0,1,1.67,1.1c.21.15.42.32.62.49l.31.25.58.54c.2.18.38.37.57.56s.36.39.53.59.51.61.75.93a13.25,13.25,0,0,1,.89,1.32l.21.34c.13.23.26.47.38.71l.18.36.33.73c.21.5.39,1,.56,1.52,0,.13.08.26.11.39s.14.53.21.8a17,17,0,0,1,.42,3.73,16.36,16.36,0,0,1-3.72,10.44c-.3.37-.62.73-.95,1.08s-.46.45-.69.66-.57.5-.86.74l-.63.48a16.64,16.64,0,0,1-7.39,3c-.37,0-1.09.15-1.73.17,0,1.51,4.3,16.16,4.29,16.19a65.91,65.91,0,0,0,6.51-2.26s8.4-3.4,12.15-7.21c.78-.8,1.54-1.69,1.54-1.69l.3-.35a33,33,0,0,0,.66-41.69Z"/><path class="cls-5" d="M432.8,107.37A33,33,0,0,0,425,86.08,38.54,38.54,0,0,1,410.61,94a17,17,0,0,1-10.91,29.93h0a17,17,0,1,1,0-33.92,18.15,18.15,0,0,1,2.09.14c.51.06,1,.13,1.29.2l.66.08a7,7,0,0,0,.77,0l.76-.12c.32-.06.82-.15,1.43-.28,0,0,.67-.14,1.31-.3a37.62,37.62,0,0,0,5.28-1.88,36,36,0,0,0,4-2.14,28.89,28.89,0,0,0,5-3.87,56.27,56.27,0,0,0-17.42-7.21,33.09,33.09,0,0,0-28.8,9.5h0c-.62.64-1.21,1.3-1.78,2a33.08,33.08,0,0,0,21,54.05v5.35h-6.1v8.7h6.1v5.57H404v-5.57h6.1v-8.7H404v-5.35A33.13,33.13,0,0,0,432.8,107.37Z"/><path class="cls-6" d="M705.49,37.77V30.66H703v-.89H709v.89h-2.54v7.11Z"/><path class="cls-6" d="M717.18,37.77V31.18l-2.72,6.59h-.41l-2.71-6.59v6.59h-1v-8h1.42l2.49,6,2.49-6h1.43v8Z"/><path class="cls-6" d="M0,75.13,9.92,61.21a37.68,37.68,0,0,0,27.32,11.6c10,0,14.95-4.64,14.95-9.54,0-15.2-49.48-4.76-49.48-37.11C2.71,11.86,15.08,0,35.31,0,49,0,60.31,4.12,68.82,12L58.63,25.39a36.86,36.86,0,0,0-25-9.41c-7.86,0-12.24,3.48-12.24,8.63,0,13.66,47.36,4.51,47.36,36.6,0,15.72-9.21,27.58-32.41,27.58C19.85,88.79,8,83.25,0,75.13Z"/><path class="cls-6" d="M97.29,87.24V17.4H72.16V1.29h68.56V17.4h-25V87.24Z"/><path class="cls-6" d="M143.29,87.24V25h16.37v8.51C164,28,171.77,23.45,179.5,23.45v16a22.3,22.3,0,0,0-4.51-.38c-5.41,0-12.63,3.09-15.33,7.08V87.24Z"/><path class="cls-6" d="M232.47,87.24v-8a24,24,0,0,1-19.2,9.54c-15.6,0-27.58-11.86-27.58-32.73,0-20.23,11.72-32.61,27.58-32.61A23.81,23.81,0,0,1,232.47,33V25H249V87.24Zm0-20.1V45.23c-2.71-4.12-8.64-7.21-14.05-7.21-9.41,0-15.85,7.34-15.85,18S209,74.23,218.42,74.23C223.83,74.23,229.76,71.26,232.47,67.14Z"/><path class="cls-6" d="M268.42,71.78V39.3H258.11V25h10.31V1.29L284.91,8V25h12.63V39.3H284.91V67.4c0,3.86,2.06,6.83,5.67,6.83a8.88,8.88,0,0,0,5.67-1.81l3.48,12.37c-2.45,2.19-6.83,4-13.66,4C274.6,88.79,268.42,82.86,268.42,71.78Z"/><path class="cls-6" d="M356.43,69.59a17.84,17.84,0,0,1-3.66,2.66,16.56,16.56,0,0,0,3.9-2.32Z"/><path class="cls-6" d="M325.76,50.69h25.75c0-.14,0-.29-.07-.43H325.85C325.82,50.4,325.78,50.55,325.76,50.69Z"/><path class="cls-6" d="M364.94,41.4a29.61,29.61,0,0,0-10.81-13,32.34,32.34,0,0,0-15.56-3.8c-19.54,0-33.26,14.63-33.26,32.74a34.86,34.86,0,0,0,3,14.48c5.37,10.7,16.39,17,29.72,17,9.66,0,19.45-3,25.64-8.64l-7-10.22a16.56,16.56,0,0,1-3.9,2.32,28.38,28.38,0,0,1-13,3.52c-10.57,0-16.88-6.57-17.91-14.43h39.7a37.68,37.68,0,0,1,3.34-19.94Zm-13.43,9.29H325.76c0-.14.06-.29.09-.43h-4.21c.77-6.19,5.15-13.79,15.33-13.79,10.83,0,14.95,7.86,15.34,13.79h-.87C351.47,50.4,351.49,50.55,351.51,50.69Z"/><path class="cls-6" d="M446.25,96.91a14.24,14.24,0,0,0,5.15,1c4.26,0,7.09-1.16,8.64-4.51l2.32-5.29L437.1,25h17.53l16.23,43.3L487.1,25h17.66L475.5,97.42c-4.64,11.73-12.88,14.82-23.58,15.08a45.25,45.25,0,0,1-8.12-.9Z"/></g></g></svg>